<?xml version="1.0" encoding="iso-8859-1"?>
<!-- Generator: Adobe Illustrator 19.0.0, SVG Export Plug-In . SVG Version: 6.00 Build 0)  -->
<svg version="1.1" id="Capa_1" xmlns="http://www.w3.org/2000/svg" xmlns:xlink="http://www.w3.org/1999/xlink" x="0px" y="0px"
	 viewBox="0 0 512 512" style="enable-background:new 0 0 512 512;" xml:space="preserve">
<path style="fill:#F4B400;" d="M511.231,180.921l-6.13,12.774c-5.357,47.265-26.672,93.016-63.82,128.485
	c-2.112,2.019-4.265,3.987-6.439,5.903c-85.3,75.142-214.722,69.352-293.068-14.515C95.683,264.222,77.83,198.362,87.823,136.211
	l47.502-46.935c6.099,23.88,15.947,47.409,30.617,68.353c6.397,9.138,13.701,17.771,22.015,25.734
	c143.948,137.819,282.859,10.704,282.859,10.704l13.712-26.991c1.988-3.915,6.809-5.408,10.662-3.307l12.754,6.943
	C511.582,172.7,513.024,177.182,511.231,180.921z"/>
<path style="fill:#FFDF46;" d="M511.952,178.366l-5.604-3.049c-3.853-2.102-8.674-0.608-10.663,3.307l-13.712,26.991
	c0,0-138.911,127.115-282.859-10.704c-3.544-3.379-6.892-6.892-10.065-10.508c143.557,136.139,281.767,9.663,281.767,9.663
	l13.712-26.991c1.988-3.915,6.809-5.408,10.662-3.307l12.754,6.943C510.778,172.257,512.282,175.317,511.952,178.366z"/>
<path style="fill:#FF8800;" d="M434.843,328.084c-85.3,75.142-214.722,69.352-293.068-14.515
	c-46.091-49.346-63.944-115.206-53.951-177.357l47.502-46.935c6.099,23.88,15.947,47.409,30.617,68.353
	c2.452,12.218,6.057,23.983,10.807,35.253c22.417,53.147,54.528,91.944,95.447,115.309c30.628,17.482,65.942,26.352,104.966,26.352
	h0.011C401.269,334.543,421.79,331.051,434.843,328.084z"/>
<path style="fill:#FFDF46;" d="M502.423,341.188l-12.146,10.549c-26.888,46.843-69.713,84.918-124.406,105.151
	c-125.322,46.369-263.275-18.09-308.253-143.928c-21.809-61.018-17.276-125.25,7.86-180.067
	c4.584-10.024,9.869-19.738,15.813-29.062l70.661-27.516c-1.854,11.662-2.988,23.56-3.245,35.552
	c-0.597,28.825,3.894,58.206,15.71,86.217c87.916,208.479,289.957,138.591,289.957,138.591l26.445-21.953
	c3.832-3.173,9.54-2.565,12.61,1.36l10.158,12.991C506.482,332.771,505.967,338.097,502.423,341.188z"/>
<path style="fill:#FFF2BB;" d="M505.225,336.531l-5.254-6.717c-3.07-3.925-8.777-4.533-12.609-1.36l-26.445,21.953
	c0,0-197.25,68.229-286.763-131.246c92.212,182.549,280.222,117.514,280.222,117.514l26.445-21.953
	c3.832-3.173,9.54-2.565,12.61,1.36l10.158,12.991C505.297,331.257,505.812,334.007,505.225,336.531z"/>
<g>
	<path style="fill:#F4B400;" d="M151.953,76.316c-1.854,11.662-2.988,23.56-3.245,35.552l-83.229,21.026
		c4.584-10.024,9.869-19.738,15.813-29.062L151.953,76.316z"/>
	<path style="fill:#F4B400;" d="M290.945,440.041c-27.542,0-53.247-3.863-76.73-11.554c-28.195-9.235-53.271-23.977-74.531-43.817
		C90.513,338.782,74.106,278,75.075,248.34c0.139-4.265,3.704-7.606,7.975-7.47c4.265,0.139,7.609,3.71,7.47,7.975
		c-0.844,25.816,14.62,82.452,59.708,124.528c19.605,18.296,42.752,31.898,68.797,40.429c30.361,9.944,64.887,13.036,102.61,9.182
		c4.245-0.431,8.038,2.657,8.471,6.902c0.434,4.245-2.656,8.038-6.901,8.471C312.2,439.48,301.438,440.041,290.945,440.041z"/>
</g>
<path style="fill:#A9D825;" d="M219.256,80.226l-200.35,50.627c-6.275,1.586-12.648-2.216-14.234-8.492L0.36,105.296
	c-1.586-6.275,2.216-12.648,8.492-14.234l200.35-50.627c6.275-1.586,12.648,2.216,14.234,8.492l4.312,17.064
	C229.333,72.267,225.531,78.64,219.256,80.226z"/>
<path style="fill:#80B500;" d="M219.255,80.231L18.904,130.854c-6.274,1.587-12.651-2.215-14.227-8.489l-0.206-0.834l223.067-56.372
	l0.206,0.834C229.33,72.267,225.529,78.644,219.255,80.231z"/>
<path style="fill:#A9D825;" d="M227.538,65.159L4.471,121.531L0.36,105.295c-1.586-6.274,2.215-12.651,8.489-14.237L209.2,40.434
	c6.274-1.587,12.651,2.215,14.237,8.489L227.538,65.159z"/>
<path style="fill:#FF8800;" d="M332.26,299.213c-18.729,0-31.391-2.018-32.7-2.236c-4.209-0.701-7.053-4.681-6.353-8.89
	c0.7-4.208,4.678-7.052,8.884-6.354l0,0c0.781,0.128,78.739,12.408,137.57-27.367c3.535-2.389,8.338-1.461,10.727,2.073
	c2.39,3.535,1.462,8.338-2.072,10.728C408.74,293.925,362.564,299.213,332.26,299.213z"/>
<g>
	<path style="fill:#F4B400;" d="M340.645,395.064h-0.791c-4.268,0-7.726-3.459-7.726-7.726s3.459-7.726,7.726-7.726h0.791
		c4.268,0,7.726,3.459,7.726,7.726C348.372,391.604,344.913,395.064,340.645,395.064z"/>
	<path style="fill:#F4B400;" d="M363.469,410.349h-0.791c-4.268,0-7.726-3.459-7.726-7.726s3.459-7.726,7.726-7.726h0.791
		c4.268,0,7.726,3.459,7.726,7.726C371.195,406.889,367.736,410.349,363.469,410.349z"/>
</g>
<g>
	<path style="fill:#FF8800;" d="M356.463,321.201h-0.791c-4.268,0-7.726-3.459-7.726-7.726s3.459-7.726,7.726-7.726h0.791
		c4.268,0,7.726,3.459,7.726,7.726C364.19,317.741,360.731,321.201,356.463,321.201z"/>
	<path style="fill:#FF8800;" d="M141.534,242.647h-0.792c-4.268,0-7.726-3.459-7.726-7.726s3.459-7.726,7.726-7.726h0.792
		c4.268,0,7.726,3.459,7.726,7.726S145.802,242.647,141.534,242.647z"/>
</g>
<g>
</g>
<g>
</g>
<g>
</g>
<g>
</g>
<g>
</g>
<g>
</g>
<g>
</g>
<g>
</g>
<g>
</g>
<g>
</g>
<g>
</g>
<g>
</g>
<g>
</g>
<g>
</g>
<g>
</g>
</svg>
