<?xml version="1.0" encoding="iso-8859-1"?>
<!-- Generator: Adobe Illustrator 19.0.0, SVG Export Plug-In . SVG Version: 6.00 Build 0)  -->
<svg version="1.1" id="Capa_1" xmlns="http://www.w3.org/2000/svg" xmlns:xlink="http://www.w3.org/1999/xlink" x="0px" y="0px"
	 viewBox="0 0 512 512" style="enable-background:new 0 0 512 512;" xml:space="preserve">
<g>
	<g>
		<path d="M421,271v30h-18.951l-10.123-69.712L421,202.213V121h-90v30h-30v-30h-30V90h45c41.355,0,75-33.645,75-75V0
			c-16.9,0-135.054,0-150,0c0,12.704,0,99.595,0,121h-30v30h-30v-30H91v81.213l29.075,29.075L109.951,301H91v-30H0
			c0,7.184,0,234.751,0,241h512c0-6.249,0-233.816,0-241H421z M271,29.9h87.43C352.239,47.361,335.556,60,316,60h-45V29.9z M121,151
			h30v30h90v-30h30v30h90v-30h30v38.787L369.787,211H142.213L121,189.787V151z M256,271c-41.355,0-75,33.645-75,75v22.569
			c-17.904,3.634-35.519,8.557-52.681,14.699L148.979,241h214.042l20.66,142.269c-17.162-6.143-34.777-11.065-52.681-14.699V346
			C331,304.645,297.355,271,256,271z M301,346v17.721c-14.903-1.8-29.934-2.721-45-2.721c-15.066,0-30.097,0.92-45,2.721V346
			c0-24.813,20.187-45,45-45S301,321.187,301,346z M30,301h31v30h44.595l-9.513,65.506C72.77,407.354,50.579,420.564,30,435.999V301
			z M482,482H30v-8.5c8.84-4.824,89.638-82.5,226-82.5c136.418,0,217.305,77.755,226,82.5V482z M482,435.999
			c-20.579-15.434-42.77-28.644-66.082-39.493L406.405,331H451v-30h31V435.999z"/>
	</g>
</g>
<g>
</g>
<g>
</g>
<g>
</g>
<g>
</g>
<g>
</g>
<g>
</g>
<g>
</g>
<g>
</g>
<g>
</g>
<g>
</g>
<g>
</g>
<g>
</g>
<g>
</g>
<g>
</g>
<g>
</g>
</svg>
