<svg height="512pt" viewBox="0 0 512 512" width="512pt" xmlns="http://www.w3.org/2000/svg"><path d="m272 480c-4.425781 0-8-3.574219-8-8 0-4.414062-3.585938-8-8-8s-8 3.585938-8 8c0 4.425781-3.574219 8-8 8s-8-3.574219-8-8c0-13.230469 10.769531-24 24-24s24 10.769531 24 24c0 4.425781-3.574219 8-8 8zm0 0"/><path d="m240 512c-4.425781 0-8-3.574219-8-8v-32c0-4.425781 3.574219-8 8-8s8 3.574219 8 8v32c0 4.425781-3.574219 8-8 8zm0 0"/><path d="m272 512c-4.425781 0-8-3.574219-8-8v-32c0-4.425781 3.574219-8 8-8s8 3.574219 8 8v32c0 4.425781-3.574219 8-8 8zm0 0"/><path d="m208 512c-4.425781 0-8-3.574219-8-8v-128c0-4.425781 3.574219-8 8-8s8 3.574219 8 8v128c0 4.425781-3.574219 8-8 8zm0 0"/><path d="m176 512c-4.425781 0-8-3.574219-8-8v-128c0-4.425781 3.574219-8 8-8s8 3.574219 8 8v128c0 4.425781-3.574219 8-8 8zm0 0"/><path d="m208 384c-2.046875 0-4.097656-.785156-5.65625-2.34375l-16-16c-3.128906-3.128906-3.128906-8.183594 0-11.3125s8.183594-3.128906 11.3125 0l16 16c3.128906 3.128906 3.128906 8.183594 0 11.3125-1.558594 1.558594-3.609375 2.34375-5.65625 2.34375zm0 0"/><path d="m176 384c-2.046875 0-4.097656-.785156-5.65625-2.34375-3.128906-3.128906-3.128906-8.183594 0-11.3125l16-16c3.128906-3.128906 8.183594-3.128906 11.3125 0s3.128906 8.183594 0 11.3125l-16 16c-1.558594 1.558594-3.609375 2.34375-5.65625 2.34375zm0 0"/><path d="m336 512c-4.425781 0-8-3.574219-8-8v-128c0-4.425781 3.574219-8 8-8s8 3.574219 8 8v128c0 4.425781-3.574219 8-8 8zm0 0"/><path d="m304 512c-4.425781 0-8-3.574219-8-8v-128c0-4.425781 3.574219-8 8-8s8 3.574219 8 8v128c0 4.425781-3.574219 8-8 8zm0 0"/><path d="m336 384c-2.046875 0-4.097656-.785156-5.65625-2.34375l-16-16c-3.128906-3.128906-3.128906-8.183594 0-11.3125s8.183594-3.128906 11.3125 0l16 16c3.128906 3.128906 3.128906 8.183594 0 11.3125-1.558594 1.558594-3.609375 2.34375-5.65625 2.34375zm0 0"/><path d="m304 384c-2.046875 0-4.097656-.785156-5.65625-2.34375-3.128906-3.128906-3.128906-8.183594 0-11.3125l16-16c3.128906-3.128906 8.183594-3.128906 11.3125 0s3.128906 8.183594 0 11.3125l-16 16c-1.558594 1.558594-3.609375 2.34375-5.65625 2.34375zm0 0"/><path d="m304 400h-96c-4.425781 0-8-3.574219-8-8s3.574219-8 8-8h96c4.425781 0 8 3.574219 8 8s-3.574219 8-8 8zm0 0"/><path d="m504 512h-496c-4.425781 0-8-3.574219-8-8s3.574219-8 8-8h496c4.425781 0 8 3.574219 8 8s-3.574219 8-8 8zm0 0"/><path d="m240 408c-4.425781 0-8-3.574219-8-8v-8c0-4.425781 3.574219-8 8-8s8 3.574219 8 8v8c0 4.425781-3.574219 8-8 8zm0 0"/><path d="m272 408c-4.425781 0-8-3.574219-8-8v-8c0-4.425781 3.574219-8 8-8s8 3.574219 8 8v8c0 4.425781-3.574219 8-8 8zm0 0"/><path d="m368 328h-224c-4.425781 0-8-3.574219-8-8s3.574219-8 8-8h224c4.425781 0 8 3.574219 8 8s-3.574219 8-8 8zm0 0"/><path d="m240 336c-4.425781 0-8-3.574219-8-8v-8c0-4.425781 3.574219-8 8-8s8 3.574219 8 8v8c0 4.425781-3.574219 8-8 8zm0 0"/><path d="m272 336c-4.425781 0-8-3.574219-8-8v-8c0-4.425781 3.574219-8 8-8s8 3.574219 8 8v8c0 4.425781-3.574219 8-8 8zm0 0"/><path d="m144 400c-4.425781 0-8-3.574219-8-8v-192c0-4.414062 3.574219-8 8-8s8 3.585938 8 8v192c0 4.425781-3.574219 8-8 8zm0 0"/><path d="m176 400h-120c-4.425781 0-8-3.574219-8-8s3.574219-8 8-8h120c4.425781 0 8 3.574219 8 8s-3.574219 8-8 8zm0 0"/><path d="m48 512c-4.425781 0-8-3.574219-8-8v-152c0-4.425781 3.574219-8 8-8s8 3.574219 8 8v152c0 4.425781-3.574219 8-8 8zm0 0"/><path d="m16 512c-4.425781 0-8-3.574219-8-8v-152c0-4.425781 3.574219-8 8-8s8 3.574219 8 8v152c0 4.425781-3.574219 8-8 8zm0 0"/><path d="m8 360c-4.425781 0-8-3.574219-8-8v-32c0-4.425781 3.574219-8 8-8s8 3.574219 8 8v32c0 4.425781-3.574219 8-8 8zm0 0"/><path d="m56 328h-48c-4.425781 0-8-3.574219-8-8s3.574219-8 8-8h48c4.425781 0 8 3.574219 8 8s-3.574219 8-8 8zm0 0"/><path d="m56 360c-4.425781 0-8-3.574219-8-8v-32c0-4.425781 3.574219-8 8-8s8 3.574219 8 8v32c0 4.425781-3.574219 8-8 8zm0 0"/><path d="m56 360h-48c-4.425781 0-8-3.574219-8-8s3.574219-8 8-8h48c4.425781 0 8 3.574219 8 8s-3.574219 8-8 8zm0 0"/><path d="m80 408c-4.425781 0-8-3.574219-8-8v-8c0-4.425781 3.574219-8 8-8s8 3.574219 8 8v8c0 4.425781-3.574219 8-8 8zm0 0"/><path d="m112 408c-4.425781 0-8-3.574219-8-8v-8c0-4.425781 3.574219-8 8-8s8 3.574219 8 8v8c0 4.425781-3.574219 8-8 8zm0 0"/><path d="m144 408c-4.425781 0-8-3.574219-8-8v-8c0-4.425781 3.574219-8 8-8s8 3.574219 8 8v8c0 4.425781-3.574219 8-8 8zm0 0"/><path d="m32 336c-4.425781 0-8-3.574219-8-8v-8c0-4.425781 3.574219-8 8-8s8 3.574219 8 8v8c0 4.425781-3.574219 8-8 8zm0 0"/><path d="m456 400h-120c-4.425781 0-8-3.574219-8-8s3.574219-8 8-8h120c4.425781 0 8 3.574219 8 8s-3.574219 8-8 8zm0 0"/><path d="m464 512c-4.425781 0-8-3.574219-8-8v-152c0-4.425781 3.574219-8 8-8s8 3.574219 8 8v152c0 4.425781-3.574219 8-8 8zm0 0"/><path d="m496 512c-4.425781 0-8-3.574219-8-8v-152c0-4.425781 3.574219-8 8-8s8 3.574219 8 8v152c0 4.425781-3.574219 8-8 8zm0 0"/><path d="m504 360c-4.425781 0-8-3.574219-8-8v-32c0-4.425781 3.574219-8 8-8s8 3.574219 8 8v32c0 4.425781-3.574219 8-8 8zm0 0"/><path d="m504 328h-48c-4.425781 0-8-3.574219-8-8s3.574219-8 8-8h48c4.425781 0 8 3.574219 8 8s-3.574219 8-8 8zm0 0"/><path d="m456 360c-4.425781 0-8-3.574219-8-8v-32c0-4.425781 3.574219-8 8-8s8 3.574219 8 8v32c0 4.425781-3.574219 8-8 8zm0 0"/><path d="m504 360h-48c-4.425781 0-8-3.574219-8-8s3.574219-8 8-8h48c4.425781 0 8 3.574219 8 8s-3.574219 8-8 8zm0 0"/><path d="m432 408c-4.425781 0-8-3.574219-8-8v-8c0-4.425781 3.574219-8 8-8s8 3.574219 8 8v8c0 4.425781-3.574219 8-8 8zm0 0"/><path d="m400 408c-4.425781 0-8-3.574219-8-8v-8c0-4.425781 3.574219-8 8-8s8 3.574219 8 8v8c0 4.425781-3.574219 8-8 8zm0 0"/><path d="m368 408c-4.425781 0-8-3.574219-8-8v-8c0-4.425781 3.574219-8 8-8s8 3.574219 8 8v8c0 4.425781-3.574219 8-8 8zm0 0"/><path d="m480 336c-4.425781 0-8-3.574219-8-8v-8c0-4.425781 3.574219-8 8-8s8 3.574219 8 8v8c0 4.425781-3.574219 8-8 8zm0 0"/><path d="m176 336c-4.425781 0-8-3.574219-8-8v-8c0-4.425781 3.574219-8 8-8s8 3.574219 8 8v8c0 4.425781-3.574219 8-8 8zm0 0"/><path d="m208 336c-4.425781 0-8-3.574219-8-8v-8c0-4.425781 3.574219-8 8-8s8 3.574219 8 8v8c0 4.425781-3.574219 8-8 8zm0 0"/><path d="m304 336c-4.425781 0-8-3.574219-8-8v-8c0-4.425781 3.574219-8 8-8s8 3.574219 8 8v8c0 4.425781-3.574219 8-8 8zm0 0"/><path d="m336 336c-4.425781 0-8-3.574219-8-8v-8c0-4.425781 3.574219-8 8-8s8 3.574219 8 8v8c0 4.425781-3.574219 8-8 8zm0 0"/><path d="m368 400c-4.425781 0-8-3.574219-8-8v-192c0-4.414062 3.574219-8 8-8s8 3.585938 8 8v192c0 4.425781-3.574219 8-8 8zm0 0"/><path d="m112 400c-4.425781 0-8-3.574219-8-8v-192c0-4.414062 3.574219-8 8-8s8 3.585938 8 8v192c0 4.425781-3.574219 8-8 8zm0 0"/><path d="m152.007812 208c-2.9375 0-5.761718-1.617188-7.167968-4.425781l-24-48c-1.976563-3.949219-.375-8.757813 3.574218-10.734375 3.945313-1.96875 8.753907-.375 10.738282 3.574218l24 48c1.976562 3.953126.375 8.761719-3.578125 10.738282-1.140625.574218-2.367188.847656-3.566407.847656zm0 0"/><path d="m152 208h-48c-4.425781 0-8-3.585938-8-8s3.574219-8 8-8h48c4.425781 0 8 3.585938 8 8s-3.574219 8-8 8zm0 0"/><path d="m103.992188 208c-1.199219 0-2.425782-.273438-3.566407-.839844-3.953125-1.976562-5.554687-6.785156-3.578125-10.734375l24-48c1.984375-3.953125 6.792969-5.546875 10.738282-3.578125 3.949218 1.976563 5.550781 6.785156 3.574218 10.738282l-24 48c-1.40625 2.796874-4.230468 4.414062-7.167968 4.414062zm0 0"/><path d="m400 400c-4.425781 0-8-3.574219-8-8v-192c0-4.414062 3.574219-8 8-8s8 3.585938 8 8v192c0 4.425781-3.574219 8-8 8zm0 0"/><path d="m408.007812 208c-2.9375 0-5.761718-1.617188-7.167968-4.425781l-24-48c-1.976563-3.949219-.375-8.757813 3.574218-10.734375 3.953126-1.96875 8.753907-.375 10.738282 3.574218l24 48c1.976562 3.953126.375 8.761719-3.578125 10.738282-1.140625.574218-2.367188.847656-3.566407.847656zm0 0"/><path d="m408 208h-48c-4.425781 0-8-3.585938-8-8s3.574219-8 8-8h48c4.425781 0 8 3.585938 8 8s-3.574219 8-8 8zm0 0"/><path d="m359.992188 208c-1.199219 0-2.425782-.273438-3.566407-.839844-3.953125-1.976562-5.554687-6.785156-3.578125-10.734375l24-48c1.984375-3.953125 6.785156-5.546875 10.738282-3.578125 3.949218 1.976563 5.550781 6.785156 3.574218 10.738282l-24 48c-1.40625 2.796874-4.230468 4.414062-7.167968 4.414062zm0 0"/><path d="m176 328c-4.425781 0-8-3.574219-8-8v-80c0-4.414062 3.574219-8 8-8s8 3.585938 8 8v80c0 4.425781-3.574219 8-8 8zm0 0"/><path d="m336 328c-4.425781 0-8-3.574219-8-8v-80c0-4.414062 3.574219-8 8-8s8 3.585938 8 8v80c0 4.425781-3.574219 8-8 8zm0 0"/><path d="m336 256h-160c-4.425781 0-8-3.585938-8-8s3.574219-8 8-8h160c4.425781 0 8 3.585938 8 8s-3.574219 8-8 8zm0 0"/><path d="m176 248c-4.425781 0-8-3.585938-8-8v-24c0-4.414062 3.574219-8 8-8s8 3.585938 8 8v24c0 4.414062-3.574219 8-8 8zm0 0"/><path d="m336 248c-4.425781 0-8-3.585938-8-8v-24c0-4.414062 3.574219-8 8-8s8 3.585938 8 8v24c0 4.414062-3.574219 8-8 8zm0 0"/><path d="m336 224h-160c-4.425781 0-8-3.585938-8-8s3.574219-8 8-8h160c4.425781 0 8 3.585938 8 8s-3.574219 8-8 8zm0 0"/><path d="m208 232c-4.425781 0-8-3.585938-8-8v-8c0-4.414062 3.574219-8 8-8s8 3.585938 8 8v8c0 4.414062-3.574219 8-8 8zm0 0"/><path d="m240 232c-4.425781 0-8-3.585938-8-8v-8c0-4.414062 3.574219-8 8-8s8 3.585938 8 8v8c0 4.414062-3.574219 8-8 8zm0 0"/><path d="m272 232c-4.425781 0-8-3.585938-8-8v-8c0-4.414062 3.574219-8 8-8s8 3.585938 8 8v8c0 4.414062-3.574219 8-8 8zm0 0"/><path d="m304 232c-4.425781 0-8-3.585938-8-8v-8c0-4.414062 3.574219-8 8-8s8 3.585938 8 8v8c0 4.414062-3.574219 8-8 8zm0 0"/><path d="m224 224c-4.425781 0-8-3.585938-8-8v-96c0-4.414062 3.574219-8 8-8s8 3.585938 8 8v96c0 4.414062-3.574219 8-8 8zm0 0"/><path d="m288 224c-4.425781 0-8-3.585938-8-8v-96c0-4.414062 3.574219-8 8-8s8 3.585938 8 8v96c0 4.414062-3.574219 8-8 8zm0 0"/><path d="m215.992188 128c-1.3125 0-2.648438-.328125-3.871094-1.007812-3.863282-2.144532-5.257813-7.015626-3.113282-10.878907l40-72c2.144532-3.855469 7.015626-5.257812 10.871094-3.105469 3.863282 2.144532 5.257813 7.015626 3.113282 10.878907l-40 72c-1.464844 2.625-4.183594 4.113281-7 4.113281zm0 0"/><path d="m296.007812 128c-2.816406 0-5.535156-1.488281-7-4.113281l-40-72c-2.152343-3.863281-.761718-8.734375 3.113282-10.878907 3.855468-2.152343 8.734375-.75 10.871094 3.105469l40 72c2.152343 3.863281.761718 8.734375-3.113282 10.878907-1.222656.679687-2.558594 1.007812-3.871094 1.007812zm0 0"/><path d="m296 128h-80c-4.425781 0-8-3.585938-8-8s3.574219-8 8-8h80c4.425781 0 8 3.585938 8 8s-3.574219 8-8 8zm0 0"/><path d="m256 184c-4.425781 0-8-3.585938-8-8v-16c0-4.414062 3.574219-8 8-8s8 3.585938 8 8v16c0 4.414062-3.574219 8-8 8zm0 0"/><path d="m208 296c-4.425781 0-8-3.574219-8-8v-8c0-4.425781 3.574219-8 8-8s8 3.574219 8 8v8c0 4.425781-3.574219 8-8 8zm0 0"/><path d="m240 296c-4.425781 0-8-3.574219-8-8v-8c0-4.425781 3.574219-8 8-8s8 3.574219 8 8v8c0 4.425781-3.574219 8-8 8zm0 0"/><path d="m272 296c-4.425781 0-8-3.574219-8-8v-8c0-4.425781 3.574219-8 8-8s8 3.574219 8 8v8c0 4.425781-3.574219 8-8 8zm0 0"/><path d="m304 296c-4.425781 0-8-3.574219-8-8v-8c0-4.425781 3.574219-8 8-8s8 3.574219 8 8v8c0 4.425781-3.574219 8-8 8zm0 0"/><path d="m256 56c-4.425781 0-8-3.585938-8-8v-40c0-4.414062 3.574219-8 8-8s8 3.585938 8 8v40c0 4.414062-3.574219 8-8 8zm0 0"/><path d="m304 24h-48c-4.425781 0-8-3.585938-8-8s3.574219-8 8-8h48c4.425781 0 8 3.585938 8 8s-3.574219 8-8 8zm0 0"/><path d="m288 40c-2.046875 0-4.097656-.785156-5.65625-2.34375-3.128906-3.128906-3.128906-8.183594 0-11.3125l16-16c3.128906-3.128906 8.183594-3.128906 11.3125 0s3.128906 8.183594 0 11.3125l-16 16c-1.558594 1.558594-3.609375 2.34375-5.65625 2.34375zm0 0"/><path d="m336 40h-48c-4.425781 0-8-3.585938-8-8s3.574219-8 8-8h48c4.425781 0 8 3.585938 8 8s-3.574219 8-8 8zm0 0"/></svg>