<?xml version="1.0" encoding="iso-8859-1"?>
<!-- Generator: Adobe Illustrator 19.0.0, SVG Export Plug-In . SVG Version: 6.00 Build 0)  -->
<svg version="1.1" id="Capa_1" xmlns="http://www.w3.org/2000/svg" xmlns:xlink="http://www.w3.org/1999/xlink" x="0px" y="0px"
	 viewBox="0 0 512 512" style="enable-background:new 0 0 512 512;" xml:space="preserve">
<g>
	<g>
		<path d="M504.5,437.89c4.142,0,7.5-3.357,7.5-7.5v-14.864c0-8.534-5.518-15.787-13.168-18.424
			c0-1.752,0.032-274.735-0.058-275.488c-0.107-0.884,0.668,2.39-12.943-51.705V51.503c0-4.143-3.357-7.5-7.5-7.5
			c-4.143,0-7.5,3.357-7.5,7.5c0,22.602,1.339,13.085-6.693,45.006l-22.141-62.954V7.5c0-4.143-3.358-7.5-7.5-7.5
			c-4.143,0-7.5,3.357-7.5,7.5v26.056L404.854,96.51c-7.909-31.433-6.693-21.829-6.693-45.007c0-4.143-3.358-7.5-7.5-7.5
			c-4.143,0-7.5,3.357-7.5,7.5v18.405c-13.482,53.582-13.001,51.268-13.001,52.599v36.836H141.843c0-0.587,0.01-36.608-0.018-37.194
			c-0.061-1.297,0.64,1.901-12.983-52.24V51.503c0-4.143-3.357-7.5-7.5-7.5s-7.5,3.357-7.5,7.5v18.405l-6.693,26.602L85.005,33.556
			V7.5c0-4.143-3.357-7.5-7.5-7.5s-7.5,3.357-7.5,7.5v26.056L47.862,96.51c-7.909-31.435-6.693-21.831-6.693-45.007
			c0-4.143-3.357-7.5-7.5-7.5c-4.142,0-7.5,3.357-7.5,7.5c0,29.379,0.894,10.778-12.796,69.289c-0.062,0.262-0.126,0.654-0.146,0.82
			c-0.027,0.228-0.058,0.781-0.058,0.895c0,16.072,0,259.443,0,274.594C5.518,399.739,0,406.992,0,415.525v76.974
			C0,503.251,8.749,512,19.501,512h116.007c10.753,0,19.501-8.749,19.501-19.501v-5.309c50.461-67.151,151.411-67.292,201.981,0.003
			v5.306c0,10.753,8.749,19.501,19.501,19.501h116.007c10.753,0,19.501-8.749,19.501-19.501v-35.104c0-4.143-3.358-7.5-7.5-7.5
			c-4.143,0-7.5,3.357-7.5,7.5v35.104c0,2.482-2.019,4.5-4.5,4.5H376.492c-2.482,0-4.5-2.018-4.5-4.5c0-16.574,0-64.625,0-81.474
			c13.246,0,108.316,0,120.507,0c2.481,0,4.5,2.018,4.5,4.5v14.864C496.999,434.532,500.356,437.89,504.5,437.89z M121.341,101.576
			l3.379,13.431h-6.758L121.341,101.576z M115.841,130.008h11.001v29.336h-11.001V130.008z M115.841,174.345h11.001v10.667h-11.001
			V174.345z M115.841,200.012h11.001v28.419h-11.001V200.012z M115.841,243.432h11.001v10.667h-11.001V243.432z M115.841,269.099
			h11.001v28.419h-11.001V269.099z M115.841,312.519h11.001v10.667h-11.001V312.519z M115.841,338.186h11.001v57.838h-11.001
			V338.186z M54.169,123.787l23.335-66.345l23.335,66.346v35.555H54.169V123.787z M100.84,174.345v10.667H54.171v-10.667H100.84z
			 M54.169,200.012h46.671v28.419H54.169V200.012z M100.84,243.432v10.667H54.171v-10.667H100.84z M54.169,269.099h46.671v28.419
			H54.169V269.099z M100.84,312.519v10.667H54.171v-10.667H100.84z M54.169,338.187h46.671v57.837H54.169V338.187z M33.668,101.576
			l3.379,13.431h-6.758L33.668,101.576z M28.168,130.008h11.001v29.336H28.168V130.008z M28.168,174.345h11.001v10.667H28.168
			V174.345z M28.168,200.012h11.001v28.419H28.168V200.012z M28.168,243.432h11.001v10.667H28.168V243.432z M28.168,269.099h11.001
			v28.419H28.168V269.099z M28.168,312.519h11.001v10.667H28.168V312.519z M28.168,338.187h11.001v57.837H28.168V338.187z
			 M140.008,492.499c0,2.482-2.018,4.5-4.5,4.5H19.501c-2.481,0-4.5-2.018-4.5-4.5v-76.974c0-2.482,2.019-4.5,4.5-4.5
			c13.87,0,106.405,0,120.507,0C140.008,427.877,140.008,475.926,140.008,492.499z M191.433,437.282
			c-13.456,6.927-25.803,16.092-36.423,26.941v-27.531h37.613C192.227,436.891,191.826,437.079,191.433,437.282z M356.991,464.218
			c-10.907-11.141-23.595-20.486-37.614-27.526h37.614V464.218z M356.991,421.692H155.009v-10.667h201.981V421.692z
			 M370.158,185.011H209.36c-4.143,0-7.5,3.357-7.5,7.5s3.357,7.5,7.5,7.5h160.799c0,1.474,0,191.959,0,196.012h-5.667
			c-10.963,0-212.104,0-222.648,0c0-6.679,0-192.379,0-196.012h40.515c4.143,0,7.5-3.357,7.5-7.5s-3.357-7.5-7.5-7.5h-40.515
			v-10.667h228.316V185.011z M390.66,101.576l3.379,13.431h-6.758L390.66,101.576z M396.16,396.024h-11.001v-57.838h11.001V396.024z
			 M396.16,323.186h-11.001v-10.667h11.001V323.186z M396.16,297.518h-11.001v-28.419h11.001V297.518z M396.16,254.098h-11.001
			v-10.667h11.001V254.098z M396.16,228.431h-11.001v-28.419h11.001V228.431z M396.16,185.011h-11.001v-10.667h11.001V185.011z
			 M396.16,159.344h-11.001v-29.336h11.001V159.344z M457.83,396.024h-46.669v-57.838h46.669V396.024z M457.83,323.186h-46.669
			v-10.667h46.669V323.186z M457.83,297.518h-46.669v-28.419h46.669V297.518z M457.83,254.098h-46.669v-10.667h46.669V254.098z
			 M457.83,228.431h-46.669v-28.419h46.669V228.431z M457.83,185.011h-46.669v-10.667h46.669V185.011z M457.83,159.344h-46.669
			v-35.556l23.334-66.346l23.334,66.346V159.344z M478.331,101.576l3.379,13.431h-6.758L478.331,101.576z M483.831,396.024h-11.001
			v-57.837h11.001V396.024z M483.831,323.186h-11.001v-10.667h11.001V323.186z M483.831,297.518h-11.001v-28.419h11.001V297.518z
			 M483.831,254.098h-11.001v-10.667h11.001V254.098z M483.831,228.431h-11.001v-28.419h11.001V228.431z M483.831,185.011h-11.001
			v-10.667h11.001V185.011z M483.831,159.344h-11.001v-29.336h11.001V159.344z"/>
	</g>
</g>
<g>
</g>
<g>
</g>
<g>
</g>
<g>
</g>
<g>
</g>
<g>
</g>
<g>
</g>
<g>
</g>
<g>
</g>
<g>
</g>
<g>
</g>
<g>
</g>
<g>
</g>
<g>
</g>
<g>
</g>
</svg>
